<mxfile host="app.diagrams.net" modified="2022-08-28T19:19:34.023Z" agent="5.0 (X11; Linux x86_64) AppleWebKit/537.36 (KHTML, like Gecko) Chrome/104.0.0.0 Safari/537.36" etag="DUyI6sT0hgGYuPu9NKhP" version="20.2.7" type="github" pages="2">
  <diagram id="7UlVRwlyegr4FhzEtUno" name="Service Design">
    <mxGraphModel dx="810" dy="650" grid="1" gridSize="10" guides="1" tooltips="1" connect="1" arrows="1" fold="1" page="1" pageScale="1" pageWidth="1100" pageHeight="850" math="0" shadow="0">
      <root>
        <mxCell id="0" />
        <mxCell id="1" parent="0" />
        <mxCell id="ev7gZziuKa32cAHw3EfZ-43" value="" style="rounded=1;whiteSpace=wrap;html=1;shadow=1;fillColor=#f5f5f5;strokeColor=#666666;fontColor=#333333;" vertex="1" parent="1">
          <mxGeometry x="640" y="240" width="180" height="200" as="geometry" />
        </mxCell>
        <mxCell id="ev7gZziuKa32cAHw3EfZ-7" style="edgeStyle=orthogonalEdgeStyle;rounded=0;orthogonalLoop=1;jettySize=auto;html=1;entryX=0;entryY=0.5;entryDx=0;entryDy=0;" edge="1" parent="1" source="ev7gZziuKa32cAHw3EfZ-2" target="ev7gZziuKa32cAHw3EfZ-4">
          <mxGeometry relative="1" as="geometry" />
        </mxCell>
        <mxCell id="ev7gZziuKa32cAHw3EfZ-2" value="Controller" style="rounded=1;whiteSpace=wrap;html=1;shadow=1;fillColor=#dae8fc;strokeColor=#6c8ebf;" vertex="1" parent="1">
          <mxGeometry x="160" y="80" width="80" height="30" as="geometry" />
        </mxCell>
        <mxCell id="ev7gZziuKa32cAHw3EfZ-8" style="edgeStyle=orthogonalEdgeStyle;rounded=0;orthogonalLoop=1;jettySize=auto;html=1;entryX=0;entryY=0.5;entryDx=0;entryDy=0;" edge="1" parent="1" source="ev7gZziuKa32cAHw3EfZ-4" target="ev7gZziuKa32cAHw3EfZ-5">
          <mxGeometry relative="1" as="geometry" />
        </mxCell>
        <mxCell id="ev7gZziuKa32cAHw3EfZ-4" value="Service&amp;nbsp;" style="rounded=1;whiteSpace=wrap;html=1;shadow=1;fillColor=#d5e8d4;strokeColor=#82b366;" vertex="1" parent="1">
          <mxGeometry x="320" y="80" width="80" height="30" as="geometry" />
        </mxCell>
        <mxCell id="ev7gZziuKa32cAHw3EfZ-9" style="edgeStyle=orthogonalEdgeStyle;rounded=0;orthogonalLoop=1;jettySize=auto;html=1;entryX=0;entryY=0.5;entryDx=0;entryDy=0;entryPerimeter=0;" edge="1" parent="1" source="ev7gZziuKa32cAHw3EfZ-5" target="ev7gZziuKa32cAHw3EfZ-6">
          <mxGeometry relative="1" as="geometry" />
        </mxCell>
        <mxCell id="ev7gZziuKa32cAHw3EfZ-5" value="Repository&amp;nbsp;" style="rounded=1;whiteSpace=wrap;html=1;shadow=1;fillColor=#ffe6cc;strokeColor=#d79b00;" vertex="1" parent="1">
          <mxGeometry x="480" y="80" width="80" height="30" as="geometry" />
        </mxCell>
        <mxCell id="ev7gZziuKa32cAHw3EfZ-6" value="DB" style="shape=cylinder3;whiteSpace=wrap;html=1;boundedLbl=1;backgroundOutline=1;size=15;shadow=1;fillColor=#f8cecc;strokeColor=#b85450;" vertex="1" parent="1">
          <mxGeometry x="640" y="55" width="60" height="80" as="geometry" />
        </mxCell>
        <mxCell id="ev7gZziuKa32cAHw3EfZ-10" value="Host" style="rounded=1;whiteSpace=wrap;html=1;shadow=1;" vertex="1" parent="1">
          <mxGeometry x="40" y="280" width="120" height="40" as="geometry" />
        </mxCell>
        <mxCell id="ev7gZziuKa32cAHw3EfZ-26" value="" style="edgeStyle=orthogonalEdgeStyle;rounded=0;orthogonalLoop=1;jettySize=auto;html=1;" edge="1" parent="1" source="ev7gZziuKa32cAHw3EfZ-11" target="ev7gZziuKa32cAHw3EfZ-15">
          <mxGeometry relative="1" as="geometry" />
        </mxCell>
        <mxCell id="ev7gZziuKa32cAHw3EfZ-11" value="ApplicationService" style="rounded=1;whiteSpace=wrap;html=1;shadow=1;" vertex="1" parent="1">
          <mxGeometry x="240" y="360" width="120" height="40" as="geometry" />
        </mxCell>
        <mxCell id="ev7gZziuKa32cAHw3EfZ-27" style="edgeStyle=orthogonalEdgeStyle;rounded=0;orthogonalLoop=1;jettySize=auto;html=1;entryX=0.5;entryY=1;entryDx=0;entryDy=0;" edge="1" parent="1" source="ev7gZziuKa32cAHw3EfZ-12" target="ev7gZziuKa32cAHw3EfZ-16">
          <mxGeometry relative="1" as="geometry" />
        </mxCell>
        <mxCell id="ev7gZziuKa32cAHw3EfZ-12" value="DomainService&amp;nbsp;" style="rounded=1;whiteSpace=wrap;html=1;shadow=1;" vertex="1" parent="1">
          <mxGeometry x="440" y="360" width="120" height="40" as="geometry" />
        </mxCell>
        <mxCell id="ev7gZziuKa32cAHw3EfZ-47" style="edgeStyle=orthogonalEdgeStyle;rounded=0;orthogonalLoop=1;jettySize=auto;html=1;" edge="1" parent="1" source="ev7gZziuKa32cAHw3EfZ-13">
          <mxGeometry relative="1" as="geometry">
            <mxPoint x="820" y="280" as="targetPoint" />
          </mxGeometry>
        </mxCell>
        <mxCell id="ev7gZziuKa32cAHw3EfZ-13" value="SQL" style="shape=cylinder3;whiteSpace=wrap;html=1;boundedLbl=1;backgroundOutline=1;size=15;shadow=1;fillColor=#ffe6cc;strokeColor=#d79b00;" vertex="1" parent="1">
          <mxGeometry x="920" y="200" width="80" height="80" as="geometry" />
        </mxCell>
        <mxCell id="ev7gZziuKa32cAHw3EfZ-19" style="edgeStyle=orthogonalEdgeStyle;rounded=0;orthogonalLoop=1;jettySize=auto;html=1;entryX=1;entryY=0.5;entryDx=0;entryDy=0;" edge="1" parent="1" source="ev7gZziuKa32cAHw3EfZ-15" target="ev7gZziuKa32cAHw3EfZ-10">
          <mxGeometry relative="1" as="geometry" />
        </mxCell>
        <mxCell id="ev7gZziuKa32cAHw3EfZ-15" value="IApplicationService" style="rounded=1;whiteSpace=wrap;html=1;shadow=1;" vertex="1" parent="1">
          <mxGeometry x="240" y="280" width="120" height="40" as="geometry" />
        </mxCell>
        <mxCell id="ev7gZziuKa32cAHw3EfZ-25" style="edgeStyle=orthogonalEdgeStyle;rounded=0;orthogonalLoop=1;jettySize=auto;html=1;entryX=1;entryY=0.5;entryDx=0;entryDy=0;" edge="1" parent="1" source="ev7gZziuKa32cAHw3EfZ-16" target="ev7gZziuKa32cAHw3EfZ-15">
          <mxGeometry relative="1" as="geometry" />
        </mxCell>
        <mxCell id="ev7gZziuKa32cAHw3EfZ-16" value="IDomainService" style="rounded=1;whiteSpace=wrap;html=1;shadow=1;" vertex="1" parent="1">
          <mxGeometry x="440" y="280" width="120" height="40" as="geometry" />
        </mxCell>
        <mxCell id="ev7gZziuKa32cAHw3EfZ-49" style="edgeStyle=orthogonalEdgeStyle;rounded=0;orthogonalLoop=1;jettySize=auto;html=1;entryX=1;entryY=0.5;entryDx=0;entryDy=0;" edge="1" parent="1" source="ev7gZziuKa32cAHw3EfZ-28" target="ev7gZziuKa32cAHw3EfZ-43">
          <mxGeometry relative="1" as="geometry" />
        </mxCell>
        <mxCell id="ev7gZziuKa32cAHw3EfZ-28" value="Mongo DB" style="shape=cylinder3;whiteSpace=wrap;html=1;boundedLbl=1;backgroundOutline=1;size=15;shadow=1;fillColor=#d5e8d4;strokeColor=#82b366;" vertex="1" parent="1">
          <mxGeometry x="920" y="300" width="80" height="80" as="geometry" />
        </mxCell>
        <mxCell id="ev7gZziuKa32cAHw3EfZ-48" value="" style="edgeStyle=orthogonalEdgeStyle;rounded=0;orthogonalLoop=1;jettySize=auto;html=1;entryX=1;entryY=0.8;entryDx=0;entryDy=0;entryPerimeter=0;" edge="1" parent="1" source="ev7gZziuKa32cAHw3EfZ-29" target="ev7gZziuKa32cAHw3EfZ-43">
          <mxGeometry relative="1" as="geometry" />
        </mxCell>
        <mxCell id="ev7gZziuKa32cAHw3EfZ-29" value="PostgreSQL" style="shape=cylinder3;whiteSpace=wrap;html=1;boundedLbl=1;backgroundOutline=1;size=15;shadow=1;fillColor=#dae8fc;strokeColor=#6c8ebf;" vertex="1" parent="1">
          <mxGeometry x="920" y="400" width="80" height="80" as="geometry" />
        </mxCell>
        <mxCell id="ev7gZziuKa32cAHw3EfZ-33" value="" style="rounded=1;whiteSpace=wrap;html=1;shadow=1;fillColor=#ffe6cc;strokeColor=#d79b00;" vertex="1" parent="1">
          <mxGeometry x="680" y="260" width="120" height="40" as="geometry" />
        </mxCell>
        <mxCell id="ev7gZziuKa32cAHw3EfZ-32" value="" style="rounded=1;whiteSpace=wrap;html=1;shadow=1;fillColor=#d5e8d4;strokeColor=#82b366;" vertex="1" parent="1">
          <mxGeometry x="670" y="270" width="120" height="40" as="geometry" />
        </mxCell>
        <mxCell id="ev7gZziuKa32cAHw3EfZ-30" value="IRepositoryService" style="rounded=1;whiteSpace=wrap;html=1;shadow=1;fillColor=#dae8fc;strokeColor=#6c8ebf;" vertex="1" parent="1">
          <mxGeometry x="660" y="280" width="120" height="40" as="geometry" />
        </mxCell>
        <mxCell id="ev7gZziuKa32cAHw3EfZ-35" value="" style="rounded=1;whiteSpace=wrap;html=1;shadow=1;fillColor=#ffe6cc;strokeColor=#d79b00;" vertex="1" parent="1">
          <mxGeometry x="680" y="360" width="120" height="40" as="geometry" />
        </mxCell>
        <mxCell id="ev7gZziuKa32cAHw3EfZ-36" value="" style="rounded=1;whiteSpace=wrap;html=1;shadow=1;fillColor=#d5e8d4;strokeColor=#82b366;" vertex="1" parent="1">
          <mxGeometry x="670" y="370" width="120" height="40" as="geometry" />
        </mxCell>
        <mxCell id="ev7gZziuKa32cAHw3EfZ-42" style="edgeStyle=orthogonalEdgeStyle;rounded=0;orthogonalLoop=1;jettySize=auto;html=1;entryX=0.5;entryY=1;entryDx=0;entryDy=0;" edge="1" parent="1" source="ev7gZziuKa32cAHw3EfZ-31" target="ev7gZziuKa32cAHw3EfZ-30">
          <mxGeometry relative="1" as="geometry" />
        </mxCell>
        <mxCell id="ev7gZziuKa32cAHw3EfZ-31" value="RepositoryService" style="rounded=1;whiteSpace=wrap;html=1;shadow=1;fillColor=#dae8fc;strokeColor=#6c8ebf;" vertex="1" parent="1">
          <mxGeometry x="660" y="380" width="120" height="40" as="geometry" />
        </mxCell>
        <mxCell id="ev7gZziuKa32cAHw3EfZ-44" value="" style="endArrow=classic;html=1;rounded=0;exitX=0;exitY=0.3;exitDx=0;exitDy=0;exitPerimeter=0;entryX=1;entryY=0.5;entryDx=0;entryDy=0;" edge="1" parent="1" source="ev7gZziuKa32cAHw3EfZ-43" target="ev7gZziuKa32cAHw3EfZ-16">
          <mxGeometry width="50" height="50" relative="1" as="geometry">
            <mxPoint x="670" y="550" as="sourcePoint" />
            <mxPoint x="590" y="550" as="targetPoint" />
          </mxGeometry>
        </mxCell>
        <mxCell id="aoRTuB5v5Qe9X8MVWNxJ-2" style="edgeStyle=orthogonalEdgeStyle;rounded=0;orthogonalLoop=1;jettySize=auto;html=1;entryX=0.5;entryY=0;entryDx=0;entryDy=0;" edge="1" parent="1" source="aoRTuB5v5Qe9X8MVWNxJ-1" target="ev7gZziuKa32cAHw3EfZ-15">
          <mxGeometry relative="1" as="geometry" />
        </mxCell>
        <mxCell id="aoRTuB5v5Qe9X8MVWNxJ-1" value="Contracts" style="rounded=1;whiteSpace=wrap;html=1;shadow=1;" vertex="1" parent="1">
          <mxGeometry x="240" y="200" width="120" height="40" as="geometry" />
        </mxCell>
        <mxCell id="aoRTuB5v5Qe9X8MVWNxJ-3" value="Contracts will be publish to consume in other services to make request between each other" style="text;html=1;strokeColor=none;fillColor=none;align=center;verticalAlign=middle;whiteSpace=wrap;rounded=0;shadow=1;" vertex="1" parent="1">
          <mxGeometry x="40" y="160" width="240" height="30" as="geometry" />
        </mxCell>
      </root>
    </mxGraphModel>
  </diagram>
  <diagram id="9YIgchQwDhizgGaYhz4Y" name="Consul Cluster">
    <mxGraphModel dx="1910" dy="1500" grid="1" gridSize="10" guides="1" tooltips="1" connect="1" arrows="1" fold="1" page="1" pageScale="1" pageWidth="1100" pageHeight="850" math="0" shadow="0">
      <root>
        <mxCell id="0" />
        <mxCell id="1" parent="0" />
        <mxCell id="NOGFLZ6ogDhnEa0tmBLq-39" style="edgeStyle=orthogonalEdgeStyle;rounded=0;orthogonalLoop=1;jettySize=auto;html=1;exitX=0;exitY=0.75;exitDx=0;exitDy=0;entryX=1;entryY=0.815;entryDx=0;entryDy=0;entryPerimeter=0;" edge="1" parent="1" source="NOGFLZ6ogDhnEa0tmBLq-19" target="NOGFLZ6ogDhnEa0tmBLq-34">
          <mxGeometry relative="1" as="geometry">
            <mxPoint x="-36" y="430" as="targetPoint" />
          </mxGeometry>
        </mxCell>
        <mxCell id="NOGFLZ6ogDhnEa0tmBLq-40" style="edgeStyle=orthogonalEdgeStyle;rounded=0;orthogonalLoop=1;jettySize=auto;html=1;exitX=0;exitY=0.25;exitDx=0;exitDy=0;entryX=1.031;entryY=0.186;entryDx=0;entryDy=0;entryPerimeter=0;" edge="1" parent="1" source="NOGFLZ6ogDhnEa0tmBLq-19" target="NOGFLZ6ogDhnEa0tmBLq-34">
          <mxGeometry relative="1" as="geometry">
            <Array as="points">
              <mxPoint x="20" y="90" />
              <mxPoint x="20" y="90" />
            </Array>
          </mxGeometry>
        </mxCell>
        <mxCell id="NOGFLZ6ogDhnEa0tmBLq-19" value="" style="rounded=0;whiteSpace=wrap;html=1;shadow=1;fillColor=#f5f5f5;fontColor=#333333;strokeColor=#666666;" vertex="1" parent="1">
          <mxGeometry x="40" y="-80" width="280" height="680" as="geometry" />
        </mxCell>
        <mxCell id="NOGFLZ6ogDhnEa0tmBLq-30" value="" style="rounded=1;whiteSpace=wrap;html=1;shadow=1;fillColor=#d5e8d4;strokeColor=#82b366;" vertex="1" parent="1">
          <mxGeometry x="60" y="-60" width="240" height="270" as="geometry" />
        </mxCell>
        <mxCell id="NOGFLZ6ogDhnEa0tmBLq-29" value="" style="rounded=1;whiteSpace=wrap;html=1;shadow=1;fillColor=#d5e8d4;strokeColor=#82b366;" vertex="1" parent="1">
          <mxGeometry x="60" y="310" width="240" height="270" as="geometry" />
        </mxCell>
        <mxCell id="NOGFLZ6ogDhnEa0tmBLq-13" value="" style="rounded=1;whiteSpace=wrap;html=1;shadow=1;fillColor=#f8cecc;strokeColor=#b85450;" vertex="1" parent="1">
          <mxGeometry x="80" y="-10" width="200" height="200" as="geometry" />
        </mxCell>
        <mxCell id="CTIIRsL9QOYnOuWOGqHX-2" value="" style="rounded=1;whiteSpace=wrap;html=1;shadow=1;fillColor=#ffe6cc;strokeColor=#d79b00;" vertex="1" parent="1">
          <mxGeometry x="410" y="30" width="120" height="40" as="geometry" />
        </mxCell>
        <mxCell id="NOGFLZ6ogDhnEa0tmBLq-36" style="edgeStyle=orthogonalEdgeStyle;rounded=0;orthogonalLoop=1;jettySize=auto;html=1;entryX=1;entryY=0.35;entryDx=0;entryDy=0;entryPerimeter=0;" edge="1" parent="1" source="CTIIRsL9QOYnOuWOGqHX-1" target="NOGFLZ6ogDhnEa0tmBLq-13">
          <mxGeometry relative="1" as="geometry" />
        </mxCell>
        <mxCell id="CTIIRsL9QOYnOuWOGqHX-1" value="CatlogService" style="rounded=1;whiteSpace=wrap;html=1;shadow=1;fillColor=#bac8d3;strokeColor=#23445d;" vertex="1" parent="1">
          <mxGeometry x="400" y="40" width="120" height="40" as="geometry" />
        </mxCell>
        <mxCell id="NOGFLZ6ogDhnEa0tmBLq-2" value="" style="rounded=1;whiteSpace=wrap;html=1;shadow=1;fillColor=#e1d5e7;strokeColor=#9673a6;" vertex="1" parent="1">
          <mxGeometry x="410" y="120" width="120" height="40" as="geometry" />
        </mxCell>
        <mxCell id="NOGFLZ6ogDhnEa0tmBLq-35" style="edgeStyle=orthogonalEdgeStyle;rounded=0;orthogonalLoop=1;jettySize=auto;html=1;entryX=1;entryY=0.8;entryDx=0;entryDy=0;entryPerimeter=0;" edge="1" parent="1" source="NOGFLZ6ogDhnEa0tmBLq-1" target="NOGFLZ6ogDhnEa0tmBLq-13">
          <mxGeometry relative="1" as="geometry" />
        </mxCell>
        <mxCell id="NOGFLZ6ogDhnEa0tmBLq-1" value="ProductService" style="rounded=1;whiteSpace=wrap;html=1;shadow=1;fillColor=#dae8fc;strokeColor=#6c8ebf;" vertex="1" parent="1">
          <mxGeometry x="400" y="130" width="120" height="40" as="geometry" />
        </mxCell>
        <mxCell id="NOGFLZ6ogDhnEa0tmBLq-3" value="NODE-1&#xa;Consul Service Registry " style="swimlane;shadow=1;startSize=30;fillColor=#fff2cc;strokeColor=#d6b656;" vertex="1" parent="1">
          <mxGeometry x="100" y="10" width="160" height="160" as="geometry" />
        </mxCell>
        <mxCell id="NOGFLZ6ogDhnEa0tmBLq-5" value="http:\\catlogservice:8085" style="text;html=1;align=center;verticalAlign=middle;resizable=0;points=[];autosize=1;strokeColor=none;fillColor=none;" vertex="1" parent="NOGFLZ6ogDhnEa0tmBLq-3">
          <mxGeometry y="30" width="160" height="30" as="geometry" />
        </mxCell>
        <mxCell id="NOGFLZ6ogDhnEa0tmBLq-6" value="http:\\catlogservice:8086" style="text;html=1;align=center;verticalAlign=middle;resizable=0;points=[];autosize=1;strokeColor=none;fillColor=none;" vertex="1" parent="NOGFLZ6ogDhnEa0tmBLq-3">
          <mxGeometry y="50" width="160" height="30" as="geometry" />
        </mxCell>
        <mxCell id="NOGFLZ6ogDhnEa0tmBLq-8" value="http:\\productservice:9096" style="text;html=1;align=center;verticalAlign=middle;resizable=0;points=[];autosize=1;strokeColor=none;fillColor=none;" vertex="1" parent="NOGFLZ6ogDhnEa0tmBLq-3">
          <mxGeometry y="130" width="160" height="30" as="geometry" />
        </mxCell>
        <mxCell id="NOGFLZ6ogDhnEa0tmBLq-7" value="http:\\productservice:9095" style="text;html=1;align=center;verticalAlign=middle;resizable=0;points=[];autosize=1;strokeColor=none;fillColor=none;" vertex="1" parent="NOGFLZ6ogDhnEa0tmBLq-3">
          <mxGeometry y="110" width="160" height="30" as="geometry" />
        </mxCell>
        <mxCell id="NOGFLZ6ogDhnEa0tmBLq-14" value="&lt;b&gt;&lt;i&gt;&lt;u&gt;Availability Zone 1&lt;/u&gt;&lt;/i&gt;&lt;/b&gt;" style="text;html=1;strokeColor=none;fillColor=none;align=center;verticalAlign=middle;whiteSpace=wrap;rounded=0;shadow=1;" vertex="1" parent="1">
          <mxGeometry x="125" y="-50" width="110" height="30" as="geometry" />
        </mxCell>
        <mxCell id="NOGFLZ6ogDhnEa0tmBLq-22" value="" style="rounded=1;whiteSpace=wrap;html=1;shadow=1;fillColor=#f8cecc;strokeColor=#b85450;" vertex="1" parent="1">
          <mxGeometry x="80" y="330" width="200" height="200" as="geometry" />
        </mxCell>
        <mxCell id="NOGFLZ6ogDhnEa0tmBLq-23" value="NODE-2&#xa;Consul Service Registry " style="swimlane;shadow=1;startSize=30;fillColor=#fff2cc;strokeColor=#d6b656;" vertex="1" parent="1">
          <mxGeometry x="100" y="350" width="160" height="160" as="geometry" />
        </mxCell>
        <mxCell id="NOGFLZ6ogDhnEa0tmBLq-24" value="http:\\catlogservice:8085" style="text;html=1;align=center;verticalAlign=middle;resizable=0;points=[];autosize=1;strokeColor=none;fillColor=none;" vertex="1" parent="NOGFLZ6ogDhnEa0tmBLq-23">
          <mxGeometry y="30" width="160" height="30" as="geometry" />
        </mxCell>
        <mxCell id="NOGFLZ6ogDhnEa0tmBLq-25" value="http:\\catlogservice:8086" style="text;html=1;align=center;verticalAlign=middle;resizable=0;points=[];autosize=1;strokeColor=none;fillColor=none;" vertex="1" parent="NOGFLZ6ogDhnEa0tmBLq-23">
          <mxGeometry y="50" width="160" height="30" as="geometry" />
        </mxCell>
        <mxCell id="NOGFLZ6ogDhnEa0tmBLq-26" value="http:\\productservice:9096" style="text;html=1;align=center;verticalAlign=middle;resizable=0;points=[];autosize=1;strokeColor=none;fillColor=none;" vertex="1" parent="NOGFLZ6ogDhnEa0tmBLq-23">
          <mxGeometry y="130" width="160" height="30" as="geometry" />
        </mxCell>
        <mxCell id="NOGFLZ6ogDhnEa0tmBLq-27" value="http:\\productservice:9095" style="text;html=1;align=center;verticalAlign=middle;resizable=0;points=[];autosize=1;strokeColor=none;fillColor=none;" vertex="1" parent="NOGFLZ6ogDhnEa0tmBLq-23">
          <mxGeometry y="110" width="160" height="30" as="geometry" />
        </mxCell>
        <mxCell id="NOGFLZ6ogDhnEa0tmBLq-28" value="&lt;b&gt;&lt;i&gt;&lt;u&gt;Availability Zone 2&lt;/u&gt;&lt;/i&gt;&lt;/b&gt;" style="text;html=1;strokeColor=none;fillColor=none;align=center;verticalAlign=middle;whiteSpace=wrap;rounded=0;shadow=1;" vertex="1" parent="1">
          <mxGeometry x="125" y="540" width="110" height="30" as="geometry" />
        </mxCell>
        <mxCell id="NOGFLZ6ogDhnEa0tmBLq-31" value="" style="shape=flexArrow;endArrow=classic;startArrow=classic;html=1;rounded=0;" edge="1" parent="1">
          <mxGeometry width="100" height="100" relative="1" as="geometry">
            <mxPoint x="235" y="310" as="sourcePoint" />
            <mxPoint x="235" y="210" as="targetPoint" />
            <Array as="points">
              <mxPoint x="235" y="310" />
            </Array>
          </mxGeometry>
        </mxCell>
        <mxCell id="NOGFLZ6ogDhnEa0tmBLq-32" value="" style="shape=flexArrow;endArrow=classic;startArrow=classic;html=1;rounded=0;" edge="1" parent="1">
          <mxGeometry width="100" height="100" relative="1" as="geometry">
            <mxPoint x="123.67" y="310" as="sourcePoint" />
            <mxPoint x="123.67" y="210" as="targetPoint" />
            <Array as="points">
              <mxPoint x="123.67" y="310" />
            </Array>
          </mxGeometry>
        </mxCell>
        <mxCell id="NOGFLZ6ogDhnEa0tmBLq-33" value="CONSUL&lt;br&gt;CLUSTER" style="text;html=1;strokeColor=none;fillColor=none;align=center;verticalAlign=middle;whiteSpace=wrap;rounded=0;shadow=1;" vertex="1" parent="1">
          <mxGeometry x="150" y="245" width="60" height="30" as="geometry" />
        </mxCell>
        <mxCell id="NOGFLZ6ogDhnEa0tmBLq-41" style="edgeStyle=orthogonalEdgeStyle;rounded=0;orthogonalLoop=1;jettySize=auto;html=1;exitX=1;exitY=0.25;exitDx=0;exitDy=0;entryX=-0.016;entryY=0.301;entryDx=0;entryDy=0;entryPerimeter=0;" edge="1" parent="1" source="NOGFLZ6ogDhnEa0tmBLq-34" target="NOGFLZ6ogDhnEa0tmBLq-19">
          <mxGeometry relative="1" as="geometry" />
        </mxCell>
        <mxCell id="NOGFLZ6ogDhnEa0tmBLq-42" style="edgeStyle=orthogonalEdgeStyle;rounded=0;orthogonalLoop=1;jettySize=auto;html=1;exitX=1;exitY=0.75;exitDx=0;exitDy=0;entryX=0.001;entryY=0.698;entryDx=0;entryDy=0;entryPerimeter=0;" edge="1" parent="1" source="NOGFLZ6ogDhnEa0tmBLq-34" target="NOGFLZ6ogDhnEa0tmBLq-19">
          <mxGeometry relative="1" as="geometry" />
        </mxCell>
        <mxCell id="NOGFLZ6ogDhnEa0tmBLq-34" value="A&lt;br&gt;P&lt;br&gt;I&lt;br&gt;&lt;br&gt;G&lt;br&gt;A&lt;br&gt;T&lt;br&gt;E&lt;br&gt;W&lt;br&gt;A&lt;br&gt;Y" style="rounded=0;whiteSpace=wrap;html=1;shadow=1;" vertex="1" parent="1">
          <mxGeometry x="-160" y="-10" width="120" height="540" as="geometry" />
        </mxCell>
        <mxCell id="NOGFLZ6ogDhnEa0tmBLq-46" style="edgeStyle=orthogonalEdgeStyle;rounded=0;orthogonalLoop=1;jettySize=auto;html=1;entryX=0;entryY=0.389;entryDx=0;entryDy=0;entryPerimeter=0;" edge="1" parent="1" source="NOGFLZ6ogDhnEa0tmBLq-44" target="NOGFLZ6ogDhnEa0tmBLq-34">
          <mxGeometry relative="1" as="geometry" />
        </mxCell>
        <mxCell id="NOGFLZ6ogDhnEa0tmBLq-44" value="" style="verticalLabelPosition=bottom;verticalAlign=top;html=1;shadow=0;dashed=0;strokeWidth=1;shape=mxgraph.android.phone2;strokeColor=#c0c0c0;" vertex="1" parent="1">
          <mxGeometry x="-320" y="170" width="40" height="60" as="geometry" />
        </mxCell>
        <mxCell id="NOGFLZ6ogDhnEa0tmBLq-47" style="edgeStyle=orthogonalEdgeStyle;rounded=0;orthogonalLoop=1;jettySize=auto;html=1;entryX=0;entryY=0.611;entryDx=0;entryDy=0;entryPerimeter=0;" edge="1" parent="1" source="NOGFLZ6ogDhnEa0tmBLq-45" target="NOGFLZ6ogDhnEa0tmBLq-34">
          <mxGeometry relative="1" as="geometry" />
        </mxCell>
        <mxCell id="NOGFLZ6ogDhnEa0tmBLq-45" value="" style="shape=actor;whiteSpace=wrap;html=1;shadow=1;" vertex="1" parent="1">
          <mxGeometry x="-320" y="290" width="40" height="60" as="geometry" />
        </mxCell>
      </root>
    </mxGraphModel>
  </diagram>
</mxfile>
